# xmcd
#
# Track frame offsets:
#	150
#	22190
#	45536
#	69071
#	86694
#	102514
#	119513
#	138768
#	155019
#	169583
#	184455
#	202563
#	218324
#	239212
#	263980
#	280792
#	300282
#	316839
#	344812
#
# Disc length: 4796 seconds
#
# Revision: 1
# Processed by: cddbd v1.5.2PL0 Copyright (c) Steve Scherf et al.
# Submitted via: audiograbber 1.83.01
#
DISCID=0d12ba13
DTITLE=Paul Butterfield's Better Days - Better days+It all comes back
DYEAR=1996
DGENRE=
TTITLE0=New walkin' blues
TTITLE1=Please send me someone to love
TTITLE2=Broke my baby's heart
TTITLE3=Done a lot of wrong things
TTITLE4=Baby please don't go
TTITLE5=Buried alive in the blues
TTITLE6=Rule the road
TTITLE7=Nobody's fault but mine
TTITLE8=Highway 28
TTITLE9=Too many drivers
TTITLE10=It's getting harder to survive
TTITLE11=If you live
TTITLE12=Win or lose
TTITLE13=Small town talk
TTITLE14=Take your pleasure where you find it
TTITLE15=Poor boy
TTITLE16=Louisiana Flood
TTITLE17=It all comes back
TTITLE18=Louise
EXTD=
EXTT0=from:"Better days"
EXTT1=from:"Better days"
EXTT2=from:"Better days"
EXTT3=from:"Better days"
EXTT4=from:"Better days"
EXTT5=from:"Better days"
EXTT6=from:"Better days"
EXTT7=from:"Better days"
EXTT8=from:"Better days"
EXTT9=from:"It all comes back"
EXTT10=from:"It all comes back"
EXTT11=from:"It all comes back"
EXTT12=from:"It all comes back"
EXTT13=from:"It all comes back"
EXTT14=from:"It all comes back"
EXTT15=from:"It all comes back"
EXTT16=from:"It all comes back"
EXTT17=from:"It all comes back"
EXTT18=bonus
PLAYORDER=
